<?xml version="1.0" encoding="UTF-8"?>
<svg width="180px" height="180px" viewBox="0 0 180 180" version="1.1" xmlns="http://www.w3.org/2000/svg">
    <title>Generative AI Robot</title>
    <g stroke="none" stroke-width="1" fill="none" fill-rule="evenodd">
        <rect fill="#F5F8FA" x="0" y="0" width="180" height="180" rx="10"></rect>
        <g transform="translate(30.000000, 15.000000)">
            <!-- Robot Head -->
            <rect fill="#805AD5" x="40" y="0" width="40" height="40" rx="5"></rect>
            <!-- Robot Eyes - Creative Eyes -->
            <circle fill="#FFFFFF" cx="55" cy="15" r="5"></circle>
            <circle fill="#FFFFFF" cx="75" cy="15" r="5"></circle>
            <circle fill="#000000" cx="55" cy="15" r="2"></circle>
            <circle fill="#000000" cx="75" cy="15" r="2"></circle>
            <!-- Creative Spark -->
            <path d="M60,20 L65,25 M65,20 L60,25" stroke="#FFFFFF" stroke-width="2"></path>
            <!-- Robot Antennas -->
            <rect fill="#805AD5" x="57.5" y="-10" width="5" height="10"></rect>
            <circle fill="#FF5733" cx="60" cy="-10" r="5"></circle>
            <!-- Robot Body -->
            <rect fill="#9F7AEA" x="35" y="45" width="50" height="60" rx="5"></rect>
            <!-- Robot Control Panel - Creation Panel -->
            <rect fill="#FFFFFF" x="45" y="55" width="30" height="20" rx="2"></rect>
            <path d="M55,60 C55,60 50,65 55,70 C60,65 55,60 55,60 Z" fill="#9F7AEA"></path>
            <path d="M65,60 C65,60 70,65 65,70 C60,65 65,60 65,60 Z" fill="#9F7AEA"></path>
            <path d="M60,65 L60,70 M57.5,67.5 L62.5,67.5" stroke="#9F7AEA" stroke-width="1.5"></path>
            <!-- Robot Arms -->
            <rect fill="#805AD5" x="20" y="50" width="15" height="5" rx="2"></rect>
            <rect fill="#805AD5" x="85" y="50" width="15" height="5" rx="2"></rect>
            <circle fill="#9F7AEA" cx="20" cy="52.5" r="5"></circle>
            <circle fill="#9F7AEA" cx="100" cy="52.5" r="5"></circle>
            <!-- Robot Legs -->
            <rect fill="#805AD5" x="45" y="105" width="10" height="30" rx="2"></rect>
            <rect fill="#805AD5" x="65" y="105" width="10" height="30" rx="2"></rect>
            <!-- Robot Feet -->
            <rect fill="#2D3748" x="40" y="135" width="20" height="5" rx="2"></rect>
            <rect fill="#2D3748" x="60" y="135" width="20" height="5" rx="2"></rect>
            <!-- Gen AI Symbols -->
            <circle fill="#6B46C1" cx="25" cy="95" r="10"></circle>
            <path d="M25,90 C20,92.5 20,97.5 25,100 C30,97.5 30,92.5 25,90 Z" fill="#FFFFFF"></path>
            <circle fill="#6B46C1" cx="95" cy="95" r="10"></circle>
            <path d="M92,92 L98,98 M98,92 L92,98" stroke="#FFFFFF" stroke-width="1.5"></path>
        </g>
    </g>
</svg>
