<?xml version="1.0" encoding="UTF-8"?>
<svg width="180px" height="180px" viewBox="0 0 180 180" version="1.1" xmlns="http://www.w3.org/2000/svg">
    <title>Machine Learning Robot</title>
    <g stroke="none" stroke-width="1" fill="none" fill-rule="evenodd">
        <rect fill="#F5F8FA" x="0" y="0" width="180" height="180" rx="10"></rect>
        <g transform="translate(30.000000, 15.000000)">
            <!-- Robot Head -->
            <rect fill="#38A169" x="40" y="0" width="40" height="40" rx="5"></rect>
            <!-- Robot Eyes -->
            <circle fill="#FFFFFF" cx="55" cy="15" r="5"></circle>
            <circle fill="#FFFFFF" cx="75" cy="15" r="5"></circle>
            <circle fill="#000000" cx="55" cy="15" r="2"></circle>
            <circle fill="#000000" cx="75" cy="15" r="2"></circle>
            <!-- Robot Antennas -->
            <rect fill="#38A169" x="57.5" y="-10" width="5" height="10"></rect>
            <circle fill="#FF5733" cx="60" cy="-10" r="5"></circle>
            <!-- Robot Body -->
            <rect fill="#48BB78" x="35" y="45" width="50" height="60" rx="5"></rect>
            <!-- Robot Control Panel -->
            <rect fill="#FFFFFF" x="45" y="55" width="30" height="20" rx="2"></rect>
            <circle fill="#FF5733" cx="55" cy="65" r="3"></circle>
            <circle fill="#3182CE" cx="65" cy="65" r="3"></circle>
            <!-- Robot Arms -->
            <rect fill="#38A169" x="20" y="50" width="15" height="5" rx="2"></rect>
            <rect fill="#38A169" x="85" y="50" width="15" height="5" rx="2"></rect>
            <!-- Robot Legs -->
            <rect fill="#38A169" x="45" y="105" width="10" height="30" rx="2"></rect>
            <rect fill="#38A169" x="65" y="105" width="10" height="30" rx="2"></rect>
            <!-- Robot Feet -->
            <rect fill="#2D3748" x="40" y="135" width="20" height="5" rx="2"></rect>
            <rect fill="#2D3748" x="60" y="135" width="20" height="5" rx="2"></rect>
            <!-- ML Symbols -->
            <circle fill="#3182CE" cx="25" cy="95" r="10"></circle>
            <path d="M25,90 L30,100 L20,100 Z" fill="#FFFFFF"></path>
            <circle fill="#3182CE" cx="95" cy="95" r="10"></circle>
            <rect fill="#FFFFFF" x="90" y="90" width="10" height="2"></rect>
            <rect fill="#FFFFFF" x="90" y="95" width="10" height="2"></rect>
            <rect fill="#FFFFFF" x="90" y="100" width="10" height="2"></rect>
        </g>
    </g>
</svg>
